<svg xmlns="http://www.w3.org/2000/svg" width="64" height="64" enable-background="new 0 0 64 64" viewBox="0 0 64 64"><path d="M46 32H36V21.343c-.632.277-1.313.427-2 .427s-1.368-.149-2-.427V32H22c-2.2 0-4 1.8-4 4v.188V38v10 4 4c0 2.2 1.8 4 4 4h24c2.2 0 4-1.8 4-4v-4-4V38v-1.813V36C50 33.8 48.2 32 46 32zM26 54.5h-4c-.276 0-.5-.224-.5-.5s.224-.5.5-.5h4c.276 0 .5.224.5.5S26.276 54.5 26 54.5zM32 48H20V38h12V48zM48 48H36V38h12V48zM29.714 19.337c-.177-.296-.312-.61-.424-.932L7.25 31.134C6.771 31.41 6.608 32.021 6.884 32.5 7.069 32.821 7.405 33 7.751 33c.169 0 .342-.043.499-.134l22.063-12.742C30.091 19.881 29.886 19.621 29.714 19.337zM57.116 3.5c-.275-.479-.889-.644-1.366-.366L37.781 13.513c.221.257.426.53.594.834.161.287.283.596.383.912L56.75 4.866C57.229 4.59 57.392 3.979 57.116 3.5zM32 20.23c.59.34 1.27.539 2 .539s1.41-.199 2-.539c1.2-.69 2-1.99 2-3.461 0-.71-.18-1.369-.5-1.939-.68-1.23-1.99-2.061-3.5-2.061-2.21 0-4 1.79-4 4 0 .75.21 1.45.57 2.051C30.92 19.4 31.41 19.89 32 20.23z"/></svg>